<svg t="1720334370349" class="icon" viewBox="0 0 1024 1024" version="1.1"
  xmlns="http://www.w3.org/2000/svg" p-id="1062" width="200" height="200">
  <path
    d="M796.16 974.56l29.76-29.76a32 32 0 0 0 8.64-29.6L727.2 432l211.36-210.72A128 128 0 0 0 976 130.72V80a32 32 0 0 0-32-32h-50.72a128 128 0 0 0-90.56 37.44L592 296.8 108.8 189.44a32 32 0 0 0-29.6 8.64l-29.76 29.76a16 16 0 0 0 3.04 24.96l362.08 220.8-151.84 183.84-153.6-37.6a32 32 0 0 0-30.24 8.48l-17.6 17.6a16 16 0 0 0 3.52 25.28l185.12 102.88 102.88 185.12a16 16 0 0 0 25.28 3.52l17.6-17.6a32 32 0 0 0 8.48-30.24l-37.6-153.6 183.84-151.84 220.8 362.24a16 16 0 0 0 24.96 2.88z"
    fill="#C2CDE7" p-id="1063"></path>
  <path
    d="M592 296.8L108.8 189.44a32 32 0 0 0-29.6 8.64l-29.76 29.76a16 16 0 0 0 3.04 24.96l362.08 220.8z"
    fill="#D6DFF2" p-id="1064"></path>
  <path
    d="M796.16 974.56l29.76-29.76a32 32 0 0 0 8.64-29.6L727.2 432l211.36-210.72A128 128 0 0 0 976 130.72V48L249.92 774.08l102.88 185.12a16 16 0 0 0 25.28 3.52l17.6-17.6a32 32 0 0 0 8.48-30.24l-37.6-153.6 183.84-151.84 220.8 362.24a16 16 0 0 0 24.96 2.88z"
    fill="#B5C4E0" p-id="1065"></path>
  <path
    d="M944 32h-50.72a143.04 143.04 0 0 0-101.76 42.24L586.4 279.2 112 173.92a48 48 0 0 0-44.32 12.96l-29.6 29.76a32 32 0 0 0 5.92 49.92l346.4 211.2L256.8 640l-144-35.2a48 48 0 0 0-45.28 12.64l-17.44 17.6a32 32 0 0 0 7.04 50.56l181.12 100.64 100.64 181.12a32 32 0 0 0 50.56 7.04l17.6-17.44a48 48 0 0 0 12.64-45.28l-35.2-144 161.76-134.08 211.2 346.4a32 32 0 0 0 23.52 15.04h3.84a32 32 0 0 0 22.56-9.44l29.76-29.76a48 48 0 0 0 12.96-43.84l-105.28-474.4 204.96-204.96A143.04 143.04 0 0 0 992 130.72V80a48 48 0 0 0-48-48z m16 98.72a112 112 0 0 1-32.8 80L715.84 421.28a16 16 0 0 0-4.32 14.72l107.2 482.72a16 16 0 0 1-4.32 14.72L784 963.36l-214.24-352 48-48a16 16 0 0 0-22.56-22.56l-56 56-182.88 152.16a16 16 0 0 0-5.28 16l37.6 153.6a16 16 0 0 1-4.16 15.2l-17.6 17.44-97.12-174.4 77.44-77.44a16 16 0 0 0-22.56-22.56l-77.44 77.44-174.56-97.12L90.24 640a16 16 0 0 1 15.04-4.16l153.6 37.6a16 16 0 0 0 16-5.28l151.36-183.2 47.04-47.04a16 16 0 0 0-22.56-22.56l-38.72 38.72L60.64 240l29.76-29.76a16 16 0 0 1 14.72-4.32l482.72 107.2a16 16 0 0 0 14.72-4.32L814.08 96.8a112 112 0 0 1 80-32.8H944a16 16 0 0 1 16 16z"
    fill="#8D6C9F" p-id="1066"></path>
  <path
    d="M396.64 604.64l-24 24a16 16 0 1 0 22.56 22.56l24-24a16 16 0 0 0-22.56-22.56zM503.36 497.92a16 16 0 0 0-22.56 22.56l22.56 22.56a16 16 0 0 0 22.56-22.56zM560 441.44A16 16 0 0 0 537.44 464L560 486.56A16 16 0 0 0 582.56 464zM616.64 384.8a16 16 0 0 0-22.56 22.56l22.56 22.56a16 16 0 0 0 22.56-22.56zM673.12 328.16a16 16 0 0 0-22.56 22.56l22.56 22.56a16 16 0 0 0 22.56-22.56z"
    fill="#8D6C9F" p-id="1067"></path>
</svg>